<?xml version="1.0" encoding="UTF-8"?>
<!DOCTYPE svg PUBLIC "-//W3C//DTD SVG 1.1//EN" "http://www.w3.org/Graphics/SVG/1.1/DTD/svg11.dtd">
<!-- Creator: CorelDRAW X6 -->
<svg xmlns="http://www.w3.org/2000/svg" xml:space="preserve" width="179mm" height="52.4372mm" version="1.1" style="shape-rendering:geometricPrecision; text-rendering:geometricPrecision; image-rendering:optimizeQuality; fill-rule:evenodd; clip-rule:evenodd"
viewBox="0 0 17136 5020"
 xmlns:xlink="http://www.w3.org/1999/xlink">
 <defs>
  <style type="text/css">
   <![CDATA[
    .fil7 {fill:none}
    .fil8 {fill:#FEFEFE}
    .fil6 {fill:#FEFEFE;fill-rule:nonzero}
    .fil3 {fill:url(#id1)}
    .fil4 {fill:url(#id2)}
    .fil1 {fill:url(#id3)}
    .fil0 {fill:url(#id4)}
    .fil2 {fill:url(#id5)}
    .fil5 {fill:url(#id6)}
   ]]>
  </style>
   <clipPath id="id0">
    <path d="M10221 968c845,0 1530,685 1530,1530 0,845 -685,1530 -1530,1530 -845,0 -1530,-685 -1530,-1530 0,-845 685,-1530 1530,-1530z"/>
   </clipPath>
  <linearGradient id="id1" gradientUnits="userSpaceOnUse" x1="10399.3" y1="1215.49" x2="12521.5" y2="1125.43">
   <stop offset="0" style="stop-color:#00AFEF"/>
   <stop offset="1" style="stop-color:#3E4095"/>
  </linearGradient>
  <linearGradient id="id2" gradientUnits="userSpaceOnUse" xlink:href="#id1" x1="9440.8" y1="482.521" x2="11563" y2="392.448">
  </linearGradient>
  <linearGradient id="id3" gradientUnits="userSpaceOnUse" xlink:href="#id1" x1="12316.3" y1="2681.46" x2="14438.5" y2="2591.38">
  </linearGradient>
  <linearGradient id="id4" gradientUnits="userSpaceOnUse" xlink:href="#id1" x1="13306" y1="3414.45" x2="15428.2" y2="3324.36">
  </linearGradient>
  <linearGradient id="id5" gradientUnits="userSpaceOnUse" xlink:href="#id1" x1="11357.8" y1="1948.49" x2="13480" y2="1858.39">
  </linearGradient>
  <radialGradient id="id6" gradientUnits="objectBoundingBox" cx="57.9999%" cy="26.9998%" r="18.0002%" fx="57.9999%" fy="26.9998%">
   <stop offset="0" style="stop-color:#D2D3D5"/>
   <stop offset="1" style="stop-color:#96989A"/>
  </radialGradient>
 </defs>
 <g id="Camada_x0020_1">
  <metadata id="CorelCorpID_0Corel-Layer"/>
  <g id="_116264048">
   <path class="fil0" d="M17136 3765c-1473,-767 -3480,1180 -5537,-331 1962,582 3532,-1641 5537,331z"/>
   <path class="fil1" d="M16146 3032c-1473,-767 -3480,1180 -5537,-331 1962,582 3532,-1641 5537,331z"/>
   <path class="fil2" d="M15188 2299c-1473,-767 -3480,1180 -5537,-331 1962,582 3532,-1641 5537,331z"/>
   <path class="fil3" d="M14229 1566c-1473,-767 -3480,1180 -5537,-331 1962,582 3532,-1641 5537,331z"/>
   <path class="fil4" d="M13271 834c-1473,-767 -3480,1180 -5537,-331 1962,582 3532,-1641 5537,331z"/>
  </g>
  <path class="fil5" d="M10221 968c845,0 1530,685 1530,1530 0,845 -685,1530 -1530,1530 -845,0 -1530,-685 -1530,-1530 0,-845 685,-1530 1530,-1530z"/>
  <g style="clip-path:url(#id0)">
   <g id="_116266136">
    <g>
     <path id="1" class="fil6" d="M11662 2498l-46 0 0 0 -2 -77 -5 -76 -9 -75 -12 -74 -16 -72 -19 -71 -22 -70 -25 -68 -28 -66 -31 -65 -34 -63 -36 -61 -39 -59 -41 -57 -44 -54 -46 -52 -48 -50 -51 -47 -53 -44 -55 -42 -57 -39 -58 -36 -60 -33 -62 -30 -63 -27 -65 -23 -66 -20 -67 -17 -69 -13 -70 -9 -71 -6 -72 -2 0 -46 74 2 73 6 72 10 71 14 70 17 68 21 67 24 65 28 64 31 62 34 60 37 58 40 56 43 54 46 52 48 50 51 48 54 45 56 43 58 40 60 37 63 35 65 32 66 29 68 26 70 23 72 19 73 16 75 13 76 9 77 6 78 2 79 0 0zm-1440 1541l0 -46 0 0 72 -2 71 -6 70 -9 69 -13 67 -17 66 -20 65 -23 63 -27 62 -30 60 -33 58 -36 57 -39 55 -42 53 -44 51 -47 48 -50 46 -52 44 -54 41 -57 39 -59 36 -61 34 -63 31 -65 28 -66 25 -68 22 -70 19 -71 16 -72 12 -74 9 -75 5 -76 2 -77 46 0 -2 79 -6 78 -9 77 -13 76 -16 75 -19 73 -23 72 -26 70 -29 68 -32 66 -35 65 -37 63 -40 60 -43 58 -45 56 -48 54 -50 51 -52 48 -54 46 -56 43 -58 40 -60 37 -62 34 -64 31 -65 28 -67 24 -68 21 -70 17 -71 14 -72 10 -73 6 -74 2 0 0zm-1440 -1541l46 0 0 0 2 77 5 76 9 75 12 74 16 72 19 71 22 70 25 68 28 66 31 65 34 63 36 61 39 59 41 57 44 54 46 52 48 50 51 47 53 44 55 42 57 39 58 36 60 33 62 30 63 27 65 23 66 20 67 17 69 13 70 9 71 6 72 2 0 46 -74 -2 -73 -6 -72 -10 -71 -14 -70 -17 -68 -21 -67 -24 -65 -28 -64 -31 -62 -34 -60 -37 -58 -40 -56 -43 -54 -46 -52 -48 -50 -51 -48 -54 -45 -56 -43 -58 -40 -60 -37 -63 -35 -65 -32 -66 -29 -68 -26 -70 -23 -72 -19 -73 -16 -75 -13 -76 -9 -77 -6 -78 -2 -79 0 0zm1440 -1541l0 46 0 0 -72 2 -71 6 -70 9 -69 13 -67 17 -66 20 -65 23 -63 27 -62 30 -60 33 -58 36 -57 39 -55 42 -53 44 -51 47 -48 50 -46 52 -44 54 -41 57 -39 59 -36 61 -34 63 -31 65 -28 66 -25 68 -22 70 -19 71 -16 72 -12 74 -9 75 -5 76 -2 77 -46 0 2 -79 6 -78 9 -77 13 -76 16 -75 19 -73 23 -72 26 -70 29 -68 32 -66 35 -65 37 -63 40 -60 43 -58 45 -56 48 -54 50 -51 52 -48 54 -46 56 -43 58 -40 60 -37 62 -34 64 -31 65 -28 67 -24 68 -21 70 -17 71 -14 72 -10 73 -6 74 -2 0 0z"/>
    </g>
    <g>
     <path class="fil6" d="M11244 2498l-46 0 0 0 -1 -77 -4 -76 -6 -75 -9 -74 -11 -73 -13 -71 -16 -70 -18 -68 -20 -67 -22 -65 -24 -63 -26 -61 -28 -59 -29 -57 -31 -54 -33 -52 -34 -49 -36 -47 -37 -44 -38 -41 -40 -39 -41 -36 -42 -33 -43 -30 -44 -26 -45 -23 -46 -20 -47 -16 -48 -13 -48 -9 -49 -6 -50 -2 0 -45 53 2 53 6 52 10 51 14 50 17 49 21 48 25 47 28 45 31 44 34 43 37 41 40 40 43 38 46 37 49 35 51 34 54 32 56 30 58 28 60 26 62 24 64 22 66 20 68 18 70 16 71 14 73 11 74 9 76 6 77 4 78 1 79 0 0zm-1023 1541l0 -45 0 0 50 -2 49 -6 48 -9 48 -13 47 -16 46 -20 45 -23 44 -26 43 -30 42 -33 41 -36 40 -39 38 -41 37 -44 36 -47 34 -49 33 -52 31 -54 29 -57 28 -59 26 -61 24 -63 22 -65 20 -66 18 -68 16 -70 13 -71 11 -73 9 -74 6 -75 4 -76 1 -77 46 0 -1 79 -4 78 -6 77 -9 76 -11 74 -14 73 -16 71 -18 70 -20 68 -22 66 -24 64 -26 62 -28 60 -30 58 -32 56 -34 54 -35 51 -37 49 -38 46 -40 43 -41 40 -43 37 -44 34 -45 31 -47 28 -48 25 -49 21 -50 17 -51 14 -52 10 -53 6 -53 2 0 0zm-1023 -1541l46 0 0 0 1 77 4 76 6 75 9 74 11 73 13 71 16 70 18 68 20 66 22 65 24 63 26 61 28 59 29 57 31 54 33 52 34 49 36 47 37 44 38 41 40 39 41 36 42 33 43 30 44 26 45 23 46 20 47 16 48 13 48 9 49 6 50 2 0 45 -53 -2 -53 -6 -52 -10 -51 -14 -50 -17 -49 -21 -48 -25 -47 -28 -45 -31 -44 -34 -43 -37 -41 -40 -40 -43 -38 -46 -37 -49 -35 -51 -34 -54 -32 -56 -30 -58 -28 -60 -26 -62 -24 -64 -22 -66 -20 -68 -18 -70 -16 -71 -14 -73 -11 -74 -9 -76 -6 -77 -4 -78 -1 -79 0 0zm1023 -1541l0 45 0 0 -50 2 -49 6 -48 9 -48 13 -47 16 -46 20 -45 23 -44 26 -43 30 -42 33 -41 36 -40 39 -38 41 -37 44 -36 47 -34 49 -33 52 -31 54 -29 57 -28 59 -26 61 -24 63 -22 65 -20 67 -18 68 -16 70 -13 71 -11 73 -9 74 -6 75 -4 76 -1 77 -46 0 1 -79 4 -78 6 -77 9 -76 11 -74 14 -73 16 -71 18 -70 20 -68 22 -66 24 -64 26 -62 28 -60 30 -58 32 -56 34 -54 35 -51 37 -49 38 -46 40 -43 41 -40 43 -37 44 -34 45 -31 47 -28 48 -25 49 -21 50 -17 51 -14 52 -10 53 -6 53 -2 0 0z"/>
    </g>
    <g>
     <path class="fil6" d="M10227 3653l0 -45 0 0 72 -1 71 -3 70 -5 69 -7 68 -9 67 -10 66 -12 64 -14 63 -15 62 -17 60 -19 59 -20 57 -22 56 -23 54 -25 52 -26 51 -27 49 -29 47 -30 45 -31 43 -32 41 -33 39 -34 36 -35 34 -36 32 -37 29 -38 27 -39 24 -40 22 -40 19 -41 16 -42 46 14 -17 44 -20 43 -23 43 -25 42 -28 41 -31 40 -33 39 -35 38 -38 37 -40 36 -42 34 -44 33 -46 32 -48 31 -50 29 -52 28 -54 27 -56 25 -57 24 -59 22 -60 21 -62 19 -63 18 -65 16 -66 14 -67 12 -68 11 -69 9 -70 7 -71 5 -72 3 -73 1 0 0zm-1631 -904l47 -9 12 45 15 44 18 44 21 43 24 42 27 41 30 40 32 40 35 39 38 37 40 36 43 35 45 34 47 33 50 31 52 30 54 29 56 27 58 26 60 24 61 22 63 21 65 19 66 17 68 15 69 13 70 12 71 10 73 8 74 5 75 3 76 1 0 45 -77 -1 -76 -3 -75 -6 -74 -8 -73 -10 -72 -12 -70 -14 -69 -16 -68 -18 -66 -19 -64 -21 -63 -23 -61 -25 -59 -26 -57 -28 -55 -29 -53 -31 -51 -32 -49 -34 -47 -35 -44 -37 -42 -38 -39 -39 -37 -40 -34 -41 -31 -43 -28 -44 -25 -45 -22 -46 -19 -46 -16 -47 -13 -48z"/>
    </g>
    <g>
     <path class="fil6" d="M10216 2942l0 -45 0 0 76 -1 75 -2 74 -4 73 -5 71 -7 70 -8 69 -10 67 -11 66 -12 64 -13 62 -15 61 -16 59 -17 57 -18 55 -19 52 -20 50 -21 48 -22 45 -23 43 -24 40 -24 38 -25 35 -26 32 -27 29 -27 26 -28 23 -28 20 -28 17 -29 13 -29 10 -29 7 -30 45 8 -8 34 -12 34 -15 33 -19 32 -22 32 -25 31 -28 30 -31 29 -34 28 -37 27 -39 26 -42 25 -44 25 -47 24 -49 23 -52 22 -54 21 -56 19 -58 18 -60 17 -62 16 -63 15 -65 14 -67 12 -68 11 -70 10 -71 8 -72 7 -74 5 -75 4 -76 2 -77 1 0 0zm-1565 -612l45 -11 9 29 12 29 15 28 18 28 21 28 24 27 27 27 30 26 33 26 35 25 38 24 41 24 43 23 45 22 48 21 50 20 52 19 54 18 56 17 58 16 60 15 61 14 63 13 65 12 66 10 67 9 69 8 70 6 71 5 72 4 73 2 74 1 0 45 -75 -1 -74 -2 -73 -4 -72 -5 -71 -7 -70 -8 -68 -9 -67 -11 -66 -12 -64 -13 -62 -14 -61 -15 -59 -17 -57 -18 -55 -19 -53 -20 -51 -21 -49 -22 -47 -23 -45 -24 -42 -25 -40 -25 -37 -26 -35 -27 -32 -28 -29 -29 -26 -30 -23 -30 -20 -31 -17 -32 -14 -33 -10 -33z"/>
    </g>
    <g>
     <path class="fil6" d="M10221 2176l0 -46 0 0 57 -1 57 -2 56 -3 55 -4 55 -5 54 -5 53 -6 52 -7 52 -8 51 -9 50 -10 49 -11 48 -12 46 -12 45 -13 44 -14 43 -15 42 -15 40 -16 39 -17 38 -17 36 -18 35 -18 33 -19 32 -20 30 -20 28 -21 27 -21 25 -21 23 -22 21 -22 19 -23 36 29 -21 24 -23 24 -25 23 -26 23 -28 22 -30 22 -31 21 -33 20 -34 20 -36 19 -37 18 -39 18 -40 17 -41 16 -43 16 -44 15 -45 14 -46 13 -47 13 -49 12 -50 11 -51 10 -51 9 -52 8 -53 7 -54 6 -55 6 -56 5 -56 4 -57 3 -58 2 -58 1 0 0zm-1364 -435l35 -29 20 22 21 22 23 22 25 21 27 21 28 20 30 20 32 19 33 19 35 18 36 18 37 17 39 16 40 16 41 15 43 14 44 14 45 13 46 12 47 11 48 11 49 10 50 9 51 8 52 7 53 6 54 5 54 4 55 3 56 3 56 2 57 1 0 46 -58 -1 -57 -2 -57 -3 -56 -4 -55 -5 -54 -5 -54 -6 -53 -7 -52 -8 -51 -9 -50 -10 -49 -11 -48 -12 -47 -12 -46 -13 -45 -14 -44 -15 -43 -15 -41 -16 -40 -17 -39 -18 -37 -18 -36 -19 -34 -19 -33 -20 -31 -21 -30 -21 -28 -22 -27 -22 -25 -23 -23 -24 -21 -24z"/>
    </g>
    <g>
     <path class="fil6" d="M10221 1522l0 -46 0 0 37 0 37 -1 37 -1 36 -2 36 -2 36 -3 35 -3 35 -4 34 -4 34 -5 33 -5 32 -6 32 -6 31 -7 31 -7 30 -8 29 -8 29 -8 28 -9 27 -9 26 -9 26 -10 25 -10 24 -10 23 -11 22 -11 21 -11 20 -12 19 -12 18 -12 17 -12 16 -13 29 36 -18 14 -19 13 -20 13 -21 13 -21 12 -22 12 -23 12 -24 11 -25 11 -26 11 -27 10 -27 10 -28 9 -29 9 -29 9 -30 8 -31 8 -31 7 -32 7 -33 6 -33 6 -34 5 -34 5 -35 5 -35 4 -36 4 -36 3 -37 2 -37 2 -37 1 -38 1 -38 0 0 0zm-933 -234l28 -36 17 12 18 12 19 12 19 11 20 11 21 11 22 11 23 10 24 10 25 10 25 9 26 9 27 9 28 8 28 8 29 8 30 7 30 7 31 6 31 6 32 6 32 5 33 5 33 4 34 4 34 3 35 3 35 2 36 2 36 1 36 1 37 0 0 46 -37 0 -37 -1 -37 -1 -36 -2 -36 -2 -35 -3 -35 -3 -35 -4 -34 -4 -34 -5 -33 -5 -33 -6 -32 -6 -32 -7 -31 -7 -30 -7 -30 -8 -29 -8 -28 -9 -28 -9 -27 -9 -26 -10 -26 -10 -25 -10 -24 -11 -23 -11 -22 -12 -22 -12 -21 -12 -20 -13 -19 -13 -18 -13z"/>
    </g>
    <g>
     <polygon class="fil6" points="10216,3995 10216,961 10262,961 10262,3995 "/>
    </g>
   </g>
  </g>
  <path class="fil7" d="M10221 968c845,0 1530,685 1530,1530 0,845 -685,1530 -1530,1530 -845,0 -1530,-685 -1530,-1530 0,-845 685,-1530 1530,-1530z"/>
  <path class="fil6" d="M421 4497l-165 0 0 518 -91 0 0 -518 -165 0 0 -82 421 0 0 82zm468 100c0,35 -8,66 -23,94 -16,28 -38,49 -67,65 -29,16 -63,24 -101,24l-136 0 0 236 -92 0 0 -600 228 0c28,0 55,5 79,14 24,9 45,22 62,38 17,16 30,35 38,57 9,22 13,46 13,73zm-91 0c0,-31 -10,-56 -29,-73 -19,-18 -45,-27 -77,-27l-131 0 0 199 131 0c32,0 58,-9 77,-26 19,-18 29,-42 29,-73zm565 0c0,35 -8,66 -23,94 -16,28 -38,49 -67,65 -29,16 -63,24 -101,24l-136 0 0 236 -92 0 0 -600 228 0c28,0 55,5 79,14 24,9 45,22 62,38 17,16 30,35 38,57 9,22 13,46 13,73zm-91 0c0,-31 -10,-56 -29,-73 -19,-18 -45,-27 -77,-27l-131 0 0 199 131 0c32,0 58,-9 77,-26 19,-18 29,-42 29,-73zm572 224l-246 0 0 -80 246 0 0 80zm649 -324l-165 0 0 518 -91 0 0 -518 -165 0 0 -82 421 0 0 82zm431 518l-384 0 0 -600 384 0 0 82 -292 0 0 175 249 0 0 81 -249 0 0 180 292 0 0 82zm506 0l-106 0 -126 -253 -114 0 0 253 -92 0 0 -600 233 0c37,0 69,7 98,22 28,15 50,36 65,62 15,26 23,57 23,91 0,41 -11,76 -33,103 -22,28 -51,46 -86,56l138 265zm-109 -424c0,-29 -9,-52 -28,-69 -19,-17 -43,-25 -74,-25l-135 0 0 187 135 0c31,0 55,-8 74,-25 19,-17 28,-39 28,-68zm697 424l-92 0 0 -401 -138 292 -67 0 -141 -292 0 401 -92 0 0 -600 92 0 175 373 171 -373 92 0 0 600zm191 0l-92 0 0 -600 92 0 0 600zm552 0l-83 0 -277 -422 0 422 -92 0 0 -600 84 0 277 421 0 -421 91 0 0 600zm543 0l-97 0 -41 -120 -237 0 -41 120 -97 0 220 -600 73 0 220 600zm-164 -198l-91 -266 -93 266 184 0zm573 198l-380 0 0 -600 92 0 0 518 289 0 0 82zm670 -418c0,35 -8,66 -23,94 -16,28 -38,49 -67,65 -29,16 -63,24 -101,24l-136 0 0 236 -92 0 0 -600 228 0c28,0 55,5 79,14 24,9 45,22 62,38 17,16 30,35 38,57 9,22 13,46 13,73zm-91 0c0,-31 -10,-56 -29,-73 -19,-18 -45,-27 -77,-27l-131 0 0 199 131 0c32,0 58,-9 77,-26 19,-18 29,-42 29,-73zm555 118c0,47 -1,84 -3,109 -2,25 -7,49 -15,71 -8,22 -21,43 -39,61 -43,43 -96,64 -158,64 -63,0 -115,-21 -158,-64 -19,-19 -32,-40 -40,-61 -8,-22 -13,-45 -15,-70 -2,-25 -3,-62 -3,-109 0,-37 0,-65 1,-87 1,-21 3,-41 7,-59 4,-18 9,-35 17,-50 8,-15 19,-31 34,-46 42,-43 95,-64 157,-64 63,0 115,21 158,64 18,19 32,40 40,62 8,22 13,45 15,70 2,25 3,61 3,109zm-91 0c0,-60 -2,-102 -7,-126 -5,-24 -14,-44 -29,-60 -10,-11 -24,-20 -40,-27 -16,-7 -32,-10 -50,-10 -17,0 -34,3 -50,10 -16,7 -29,16 -40,27 -15,16 -24,36 -29,60 -4,24 -7,66 -7,126 0,32 0,57 1,76 1,19 3,36 6,50 3,14 6,25 10,33 4,8 10,17 19,27 11,12 24,21 40,27 16,7 32,10 49,10 36,0 66,-12 89,-37 10,-11 17,-23 22,-37 5,-14 8,-32 10,-56 2,-24 3,-55 3,-94zm607 300l-106 0 -126 -253 -114 0 0 253 -92 0 0 -600 233 0c37,0 69,7 98,22 28,15 50,36 65,62 15,26 23,57 23,91 0,41 -11,76 -33,103 -22,28 -51,46 -86,56l138 265zm-109 -424c0,-29 -9,-52 -28,-69 -19,-17 -43,-25 -74,-25l-135 0 0 187 135 0c31,0 55,-8 74,-25 19,-17 28,-39 28,-68zm536 -94l-165 0 0 518 -91 0 0 -518 -165 0 0 -82 421 0 0 82zm469 316c0,41 -9,77 -28,108 -19,32 -44,56 -77,73 -33,17 -70,26 -111,26 -41,0 -77,-9 -110,-26 -33,-17 -58,-42 -77,-73 -19,-32 -28,-68 -28,-108l0 -397 91 0 0 393c0,26 5,49 15,69 10,20 25,35 43,45 19,11 40,16 65,16 25,0 47,-5 66,-16 19,-11 33,-26 44,-45 10,-20 15,-43 15,-69l0 -393 91 0 0 397zm533 202l-97 0 -41 -120 -237 0 -41 120 -97 0 220 -600 73 0 220 600zm-164 -198l-91 -266 -93 266 184 0zm19 -597l-94 137 -64 0 63 -137 95 0zm611 795l-106 0 -126 -253 -114 0 0 253 -92 0 0 -600 233 0c37,0 69,7 98,22 28,15 50,36 65,62 15,26 23,57 23,91 0,41 -11,76 -33,103 -22,28 -51,46 -86,56l138 265zm-109 -424c0,-29 -9,-52 -28,-69 -19,-17 -43,-25 -74,-25l-135 0 0 187 135 0c31,0 55,-8 74,-25 19,-17 28,-39 28,-68zm259 424l-92 0 0 -600 92 0 0 600zm510 -300c0,47 -1,84 -3,109 -2,25 -7,49 -15,71 -8,22 -21,43 -39,61 -43,43 -96,64 -158,64 -63,0 -115,-21 -158,-64 -19,-19 -32,-40 -40,-61 -8,-22 -13,-45 -15,-70 -2,-25 -3,-62 -3,-109 0,-37 0,-65 1,-87 1,-21 3,-41 7,-59 4,-18 9,-35 17,-50 8,-15 19,-31 34,-46 42,-43 95,-64 157,-64 63,0 115,21 158,64 18,19 32,40 40,62 8,22 13,45 15,70 2,25 3,61 3,109zm-91 0c0,-60 -2,-102 -7,-126 -5,-24 -14,-44 -29,-60 -10,-11 -24,-20 -40,-27 -16,-7 -32,-10 -50,-10 -17,0 -34,3 -50,10 -16,7 -29,16 -40,27 -15,16 -24,36 -29,60 -4,24 -7,66 -7,126 0,32 0,57 1,76 1,19 3,36 6,50 3,14 6,25 10,33 4,8 10,17 19,27 11,12 24,21 40,27 16,7 32,10 49,10 36,0 66,-12 89,-37 10,-11 17,-23 22,-37 5,-14 8,-32 10,-56 2,-24 3,-55 3,-94zm792 -118c0,35 -8,66 -23,94 -16,28 -38,49 -67,65 -29,16 -63,24 -101,24l-136 0 0 236 -92 0 0 -600 228 0c28,0 55,5 79,14 24,9 45,22 62,38 17,16 30,35 38,57 9,22 13,46 13,73zm-91 0c0,-31 -10,-56 -29,-73 -19,-18 -45,-27 -77,-27l-131 0 0 199 131 0c32,0 58,-9 77,-26 19,-18 29,-42 29,-73zm529 418l-384 0 0 -600 384 0 0 82 -292 0 0 175 249 0 0 81 -249 0 0 180 292 0 0 82zm160 0l-92 0 0 -600 92 0 0 600zm522 -202c0,41 -9,77 -28,108 -19,32 -44,56 -77,73 -33,17 -70,26 -111,26 -41,0 -77,-9 -110,-26 -33,-17 -58,-42 -77,-73 -19,-32 -28,-68 -28,-108l0 -397 91 0 0 393c0,26 5,49 15,69 10,20 25,35 43,45 19,11 40,16 65,16 25,0 47,-5 66,-16 19,-11 33,-26 44,-45 10,-20 15,-43 15,-69l0 -393 91 0 0 397zm-100 -593l-94 137 -65 0 63 -137 95 0z"/>
  <path class="fil8" d="M6689 844l929 -368 81 345c10,42 -15,84 -57,95l-957 237 -53 -214c-10,-42 17,-79 57,-95zm-5864 1614l275 0c243,0 363,-88 363,-267 0,-168 -112,-251 -336,-251l-302 0 0 518zm12 576l0 810c0,84 -66,163 -164,164l-671 0 0 -2344c-3,-148 107,-322 331,-337l814 0c285,0 502,33 651,98 149,65 266,166 353,301 87,135 131,286 131,453 0,255 -89,462 -267,619 -178,158 -416,236 -713,236l-465 0zm3632 334l0 640 -1684 0c-159,-1 -333,-127 -332,-338l0 -2343 2016 0 0 619 -1209 0 0 389 978 0 0 595 -978 0 0 438 1209 0zm2423 682c-331,-2 -597,-73 -800,-212 -205,-141 -307,-372 -307,-691l0 -1819 670 0c98,-1 166,76 167,164l0 1558c0,129 27,222 81,281 43,46 106,75 189,85 83,-10 146,-38 189,-85 54,-59 81,-152 81,-281l0 -1722 837 0 0 1819c0,319 -102,550 -307,691 -202,139 -469,210 -799,212zm-1358 -2722l0 2681 -654 0c-106,-1 -169,-88 -169,-164l0 -2516 822 0z"/>
 </g>
</svg>
